<svg id="Layer_1" data-name="Layer 1" xmlns="http://www.w3.org/2000/svg" viewBox="0 0 96 96"><defs><style>.cls-1{fill:#002f65;}</style></defs><title>arrow-backward</title><polygon class="cls-1" points="7.31 48.31 7.04 47.9 7.02 47.88 28.34 26.34 30.61 28.63 13.04 46.38 89.19 46.38 89.19 49.38 12.8 49.38 30.91 67.46 28.7 69.67 7.31 48.31"/><path class="cls-1" d="M28.34,27.05l1.57,1.57L13.52,45.17l-1.68,1.71H88.69v2H11.59l1.71,1.7L30.2,67.46,28.7,69,8,48.32l.07-.07-.38-.38L28.34,27.05m0-1.42-22,22.25.37.37-.06.07L28.7,70.38l2.92-2.92L14,49.88H89.69v-4H14.23L31.31,28.63l-3-3Z"/></svg>