<svg id="Layer_1" data-name="Layer 1" xmlns="http://www.w3.org/2000/svg" viewBox="0 0 96 96"><defs><style>.cls-1{fill:#002f65;}</style></defs><title>arrow-forward</title><polygon class="cls-1" points="65.39 67.38 82.97 49.63 6.81 49.63 6.81 46.63 83.2 46.63 65.09 28.54 67.3 26.33 88.69 47.69 88.96 48.1 88.98 48.13 67.66 69.66 65.39 67.38"/><path class="cls-1" d="M67.3,27,88,47.68l-.07.07.38.38L67.66,69l-1.57-1.57L82.48,50.83l1.68-1.7H7.31v-2h77.1L82.7,45.42,65.8,28.54,67.3,27m0-1.41-2.92,2.91L82,46.13H6.31v4H81.77L64.69,67.38l3,3,22-22.25-.37-.38.06-.07-22.08-22Z"/></svg>