<svg id="Layer_1" data-name="Layer 1" xmlns="http://www.w3.org/2000/svg" viewBox="0 0 500 500"><defs><style>.cls-1{fill:#78bcb8;}.cls-2,.cls-3{fill:none;opacity:0;}.cls-2,.cls-4{stroke:#002f65;}.cls-2,.cls-3,.cls-4{stroke-miterlimit:10;}.cls-3{stroke:#999;stroke-width:2px;}.cls-4{fill:#002f65;}</style></defs><title>Con Hall icon</title><path class="cls-1" d="M385.32,183c-11-25.55-67.4-45-135.32-45s-124.31,19.45-135.32,45Z"/><path class="cls-1" d="M232.32,245.81q8.69.44,17.68.45t17.68-.45Z"/><rect class="cls-2" x="25" y="25.5" width="450" height="450"/><circle class="cls-3" cx="250" cy="250" r="225"/><rect class="cls-4" x="87.61" y="188.61" width="324.77" height="27.06"/><polygon class="cls-4" points="60.55 220.55 60.55 344.5 106.56 344.5 106.56 247.61 133.62 247.61 133.62 344.5 171.51 344.5 171.51 247.61 198.58 247.61 198.58 344.5 236.47 344.5 236.47 247.61 263.53 247.61 263.53 344.5 301.42 344.5 301.42 247.61 328.49 247.61 328.49 344.5 363.67 344.5 363.67 247.61 390.73 247.61 390.73 344.5 439.45 344.5 439.45 220.55 60.55 220.55"/></svg>