<svg id="Layer_1" data-name="Layer 1" xmlns="http://www.w3.org/2000/svg" viewBox="0 0 500 500"><defs><style>.cls-1{fill:none;stroke:#000;opacity:0;}.cls-1,.cls-2{stroke-miterlimit:10;}.cls-2{fill:#002f65;stroke:#002f65;}</style></defs><title>Gear</title><rect class="cls-1" x="25" y="25" width="450" height="450"/><path class="cls-2" d="M464.87,190H419.32a10.14,10.14,0,0,1-7.17-17.3l32.21-32.21a10.13,10.13,0,0,0,0-14.33L373.84,55.64a10.13,10.13,0,0,0-14.33,0L327.3,87.85A10.14,10.14,0,0,1,310,80.68V35.13A10.14,10.14,0,0,0,299.87,25H200.13A10.14,10.14,0,0,0,190,35.13V80.68a10.14,10.14,0,0,1-17.3,7.17L140.49,55.64a10.13,10.13,0,0,0-14.33,0L55.64,126.16a10.13,10.13,0,0,0,0,14.33L87.85,172.7A10.14,10.14,0,0,1,80.68,190H35.13A10.14,10.14,0,0,0,25,200.13v99.74A10.14,10.14,0,0,0,35.13,310H80.68a10.14,10.14,0,0,1,7.17,17.3L55.64,359.51a10.13,10.13,0,0,0,0,14.33l70.52,70.52a10.13,10.13,0,0,0,14.33,0l32.21-32.21a10.14,10.14,0,0,1,17.3,7.17v45.55A10.14,10.14,0,0,0,200.13,475h99.74A10.14,10.14,0,0,0,310,464.87V419.32a10.14,10.14,0,0,1,17.3-7.17l32.21,32.21a10.13,10.13,0,0,0,14.33,0l70.52-70.52a10.13,10.13,0,0,0,0-14.33L412.15,327.3a10.14,10.14,0,0,1,7.17-17.3h45.55A10.14,10.14,0,0,0,475,299.87V200.13A10.14,10.14,0,0,0,464.87,190ZM250,375A125,125,0,1,1,375,250,125,125,0,0,1,250,375Z"/></svg>