<svg xmlns="http://www.w3.org/2000/svg" viewBox="0 0 283.76 232.1"><defs><style>.cls-1{fill:#c6c6c5;}.cls-2{fill:#fdfdfb;}.cls-3{fill:#939597;}.cls-4{fill:#fff;}.cls-5{fill:#bcbec0;stroke:#b8babc;stroke-miterlimit:10;}</style></defs><title>Asset 1</title><g id="Layer_2" data-name="Layer 2"><g id="Layer_1-2" data-name="Layer 1"><path class="cls-1" d="M180.41,183.93,71,231.18a11,11,0,0,1-14.26-5.05L1,110.2A10,10,0,0,1,6.3,96.68L115.68,49.43a11,11,0,0,1,14.27,5l55.79,115.94A10,10,0,0,1,180.41,183.93Z"/><path class="cls-2" d="M263.45,23.42,122.84.34c-13.32-2.18-26,6.28-28.3,18.9L67,170c-2.31,12.62,6.62,24.62,19.94,26.81l140.61,23.08c13.33,2.18,26-6.27,28.3-18.9L283.39,50.23C285.7,37.61,276.77,25.61,263.45,23.42Zm-116.93,82.7h0a5.19,5.19,0,0,1-.94-.08,5.27,5.27,0,0,1-2-.75,4.55,4.55,0,0,1-2.12-5.43A6.05,6.05,0,0,1,142,97a7.31,7.31,0,0,1,5.6-3.85,5.2,5.2,0,0,1,3.71,1.09,4.75,4.75,0,0,1,1.75,3.16,4.6,4.6,0,0,1-.91,3.21A4.79,4.79,0,0,1,146.52,106.12Z"/><path class="cls-3" d="M225.87,205.48,92.52,183.6c-8-1.31-13.31-8.49-11.93-16L106.44,26.18c1.38-7.55,9-12.61,16.93-11.3L256.72,36.76c8,1.31,13.31,8.49,11.93,16L242.8,194.18C241.42,201.73,233.84,206.79,225.87,205.48Z"/><path class="cls-4" d="M209.28,173.07l-86.66-14.22c-6.82-1.12-11.4-7.28-10.22-13.75l16.9-92.42c1.19-6.47,7.68-10.81,14.51-9.69l86.65,14.23c6.83,1.12,11.41,7.27,10.23,13.74l-16.9,92.43C222.6,169.85,216.11,174.19,209.28,173.07Z"/><path class="cls-5" d="M130,153.64l73.62,12.09c5.8,1,11.32-2.73,12.32-8.23l12.22-66.82-43.95,47.45L165.13,97.55l-42.3,51.58A10.66,10.66,0,0,0,130,153.64Z"/></g></g></svg>